<svg width="94" height="44" viewBox="0 0 94 44" fill="none" xmlns="http://www.w3.org/2000/svg">
<path d="M93.0607 13.0607C93.6464 12.4749 93.6464 11.5251 93.0607 10.9393L83.5147 1.3934C82.9289 0.807611 81.9792 0.807611 81.3934 1.3934C80.8076 1.97919 80.8076 2.92893 81.3934 3.51472L89.8787 12L81.3934 20.4853C80.8076 21.0711 80.8076 22.0208 81.3934 22.6066C81.9792 23.1924 82.9289 23.1924 83.5147 22.6066L93.0607 13.0607ZM2 13.5H92V10.5H2V13.5Z" fill="#1573FF"/>
<path d="M0.939339 30.9393C0.353554 31.5251 0.353554 32.4749 0.939339 33.0607L10.4853 42.6066C11.0711 43.1924 12.0208 43.1924 12.6066 42.6066C13.1924 42.0208 13.1924 41.0711 12.6066 40.4853L4.12132 32L12.6066 23.5147C13.1924 22.9289 13.1924 21.9792 12.6066 21.3934C12.0208 20.8076 11.0711 20.8076 10.4853 21.3934L0.939339 30.9393ZM92 30.5L2 30.5L2 33.5L92 33.5L92 30.5Z" fill="#1573FF"/>
</svg>
