<svg width="64" height="64" viewBox="0 0 64 64" fill="none" xmlns="http://www.w3.org/2000/svg">
<g clip-path="url(#clip0_83_4)">
<rect width="64" height="64" rx="10" fill="#1573FF"/>
<path d="M20.8417 51.3555C18.0128 51.3555 15.7319 50.4742 13.999 48.7117C12.2809 46.9492 11.4219 44.4831 11.4219 41.3136V23.2737C11.4219 19.482 12.1698 16.579 13.6657 14.5647C15.1765 12.5504 17.6277 11.5433 21.0194 11.5433C22.8708 11.5433 24.5149 11.8839 25.9515 12.5652C27.403 13.2465 28.5435 14.2685 29.3729 15.6311C30.2023 16.9789 30.617 18.6822 30.617 20.741V27.4948H22.8412V21.7185C22.8412 20.5484 22.6931 19.7634 22.3969 19.3635C22.1007 18.9488 21.6415 18.7415 21.0194 18.7415C20.2937 18.7415 19.8049 19.0081 19.5531 19.5413C19.3014 20.0596 19.1755 20.7558 19.1755 21.6296V41.2025C19.1755 42.2837 19.331 43.0464 19.642 43.4908C19.9679 43.9351 20.427 44.1573 21.0194 44.1573C21.6859 44.1573 22.1525 43.8833 22.4191 43.3353C22.7005 42.7873 22.8412 42.0763 22.8412 41.2025V34.1598H30.7059V41.5579C30.7059 44.9941 29.8394 47.4898 28.1065 49.0449C26.3737 50.5853 23.952 51.3555 20.8417 51.3555ZM32.4175 51V11.8987H40.4599L44.059 30.6274V11.8987H51.6126V51H43.9701L40.06 31.4494V51H32.4175Z" fill="white"/>
</g>
<defs>
<clipPath id="clip0_83_4">
<rect width="64" height="64" rx="10" fill="white"/>
</clipPath>
</defs>
</svg>
