<svg width="160" height="37" viewBox="0 0 160 37" fill="none" xmlns="http://www.w3.org/2000/svg">
<path d="M7.80087 31.8564C5.56258 31.8564 3.7579 31.1592 2.3868 29.7646C1.02743 28.3701 0.34774 26.4189 0.34774 23.9111V9.6377C0.34774 6.6377 0.939537 4.34082 2.12313 2.74707C3.31844 1.15332 5.2579 0.356445 7.94149 0.356445C9.40633 0.356445 10.7071 0.625977 11.8438 1.16504C12.9923 1.7041 13.8946 2.5127 14.5509 3.59082C15.2071 4.65723 15.5352 6.00488 15.5352 7.63379V12.9775H9.3829V8.40723C9.3829 7.48145 9.26571 6.86035 9.03133 6.54395C8.79696 6.21582 8.43368 6.05176 7.94149 6.05176C7.36727 6.05176 6.98055 6.2627 6.78133 6.68457C6.58212 7.09473 6.48251 7.64551 6.48251 8.33691V23.8232C6.48251 24.6787 6.60555 25.2822 6.85165 25.6338C7.10946 25.9854 7.47274 26.1611 7.94149 26.1611C8.46883 26.1611 8.83797 25.9443 9.04891 25.5107C9.27157 25.0771 9.3829 24.5146 9.3829 23.8232V18.251H15.6056V24.1045C15.6056 26.8232 14.92 28.7979 13.5489 30.0283C12.1778 31.2471 10.2618 31.8564 7.80087 31.8564ZM16.8543 31.5752V0.637695H23.3231V7.82715C23.6629 6.84277 24.1844 6.11621 24.8875 5.64746C25.5906 5.16699 26.4109 4.92676 27.3484 4.92676C29.1766 4.92676 30.5066 5.50098 31.3387 6.64941C32.1707 7.79785 32.5867 9.33887 32.5867 11.2725V31.5752H26.2234V11.6768C26.2234 11.1025 26.1004 10.6338 25.8543 10.2705C25.6199 9.90723 25.2449 9.72559 24.7293 9.72559C24.2957 9.72559 23.95 9.91309 23.6922 10.2881C23.4461 10.6631 23.3231 11.1084 23.3231 11.624V31.5752H16.8543ZM39.1441 31.8564C37.6792 31.8564 36.5601 31.5166 35.7866 30.8369C35.0249 30.1572 34.5034 29.2256 34.2222 28.042C33.9409 26.8584 33.8003 25.5166 33.8003 24.0166C33.8003 22.4111 33.9585 21.0986 34.2749 20.0791C34.5913 19.0479 35.1304 18.2041 35.8921 17.5479C36.6656 16.8916 37.7261 16.335 39.0738 15.8779L42.9761 14.542V11.835C42.9761 10.417 42.5132 9.70801 41.5874 9.70801C40.7437 9.70801 40.3218 10.2822 40.3218 11.4307V13.0127H34.2046C34.1929 12.9189 34.187 12.8018 34.187 12.6611C34.187 12.5088 34.187 12.3389 34.187 12.1514C34.187 9.52637 34.8023 7.66895 36.0327 6.5791C37.2749 5.47754 39.2378 4.92676 41.9214 4.92676C43.3277 4.92676 44.5874 5.17871 45.7007 5.68262C46.814 6.1748 47.6929 6.90723 48.3374 7.87988C48.9937 8.85254 49.3218 10.0537 49.3218 11.4834V31.5752H43.064V28.4463C42.7593 29.5479 42.2554 30.3916 41.5523 30.9775C40.8491 31.5635 40.0464 31.8564 39.1441 31.8564ZM41.6226 26.9697C42.1382 26.9697 42.4898 26.7529 42.6773 26.3193C42.8648 25.8857 42.9585 25.417 42.9585 24.9131V17.5654C42.0913 17.917 41.4175 18.3623 40.937 18.9014C40.4566 19.4287 40.2163 20.208 40.2163 21.2393V24.6318C40.2163 26.1904 40.6851 26.9697 41.6226 26.9697ZM51.0276 31.5752V5.20801H57.3206V8.56543C57.5549 7.55762 57.9885 6.70215 58.6213 5.99902C59.2659 5.28418 60.1565 4.92676 61.2932 4.92676C63.1213 4.92676 64.4456 5.48926 65.2659 6.61426C66.0979 7.73926 66.5139 9.28027 66.5139 11.2373V31.5752H60.3088V11.8877C60.3088 11.3721 60.2034 10.8975 59.9924 10.4639C59.7815 10.0186 59.4182 9.7959 58.9026 9.7959C58.4221 9.7959 58.0647 9.96582 57.8303 10.3057C57.6077 10.6338 57.467 11.0498 57.4084 11.5537C57.3498 12.0459 57.3206 12.5381 57.3206 13.0303V31.5752H51.0276ZM75.374 36.1455C74.1552 36.1455 73.1064 36.0811 72.2275 35.9521C71.3603 35.835 70.581 35.6182 69.8896 35.3018C69.1982 34.9854 68.5068 34.54 67.8154 33.9658L69.9424 30.3271C71.4775 31.2412 73.0127 31.6982 74.5478 31.6982C75.5556 31.6982 76.3056 31.376 76.7978 30.7314C77.29 30.0869 77.5361 29.249 77.5361 28.2178V25.6338C77.0322 27.4385 75.6904 28.3408 73.5107 28.3408C72.2568 28.3408 71.2431 28.042 70.4697 27.4443C69.6963 26.8467 69.1338 26.0381 68.7822 25.0186C68.4306 23.999 68.2549 22.8623 68.2549 21.6084V12.1338C68.2549 10.7158 68.4072 9.46777 68.7119 8.38965C69.0166 7.2998 69.5498 6.4502 70.3115 5.84082C71.0732 5.23145 72.1396 4.92676 73.5107 4.92676C74.6709 4.92676 75.5732 5.21973 76.2177 5.80566C76.874 6.3916 77.3134 7.18262 77.5361 8.17871V5.20801H83.9521V27.8135C83.9521 30.8018 83.2607 32.9346 81.8779 34.2119C80.5068 35.501 78.3388 36.1455 75.374 36.1455ZM76.0595 23.5947C77.0439 23.5947 77.5361 22.7041 77.5361 20.9229V11.958C77.5361 11.4775 77.3955 10.9854 77.1142 10.4814C76.8447 9.97754 76.4697 9.72559 75.9892 9.72559C75.3799 9.72559 74.999 9.9541 74.8466 10.4111C74.6943 10.8564 74.6181 11.3721 74.6181 11.958V20.9229C74.6181 21.5557 74.6943 22.1592 74.8466 22.7334C75.0107 23.3076 75.415 23.5947 76.0595 23.5947ZM93.0759 31.8564C91.2009 31.8564 89.7067 31.5049 88.5934 30.8018C87.4802 30.0986 86.6833 29.085 86.2028 27.7607C85.7224 26.4365 85.4821 24.8428 85.4821 22.9795V12.3799C85.4821 9.93066 86.1852 8.0791 87.5915 6.8252C88.9977 5.55957 90.9313 4.92676 93.3923 4.92676C98.4548 4.92676 100.986 7.41113 100.986 12.3799V14.2959C100.986 16.6162 100.963 18.1748 100.916 18.9717H91.7751V24.0693C91.7751 24.5381 91.8044 25.001 91.863 25.458C91.9216 25.9033 92.0505 26.2725 92.2497 26.5654C92.4606 26.8584 92.7946 27.0049 93.2516 27.0049C93.9079 27.0049 94.3181 26.7236 94.4821 26.1611C94.6462 25.5869 94.7282 24.8428 94.7282 23.9287V21.3975H100.986V22.8916C100.986 24.8604 100.74 26.5127 100.248 27.8486C99.7673 29.1729 98.947 30.1748 97.7868 30.8545C96.6384 31.5225 95.0681 31.8564 93.0759 31.8564ZM91.7399 15.8428H94.7282V12.292C94.7282 11.3428 94.611 10.6631 94.3766 10.2529C94.1423 9.83105 93.7907 9.62012 93.322 9.62012C92.8181 9.62012 92.4255 9.81934 92.1442 10.2178C91.8747 10.6162 91.7399 11.3076 91.7399 12.292V15.8428ZM102.657 31.5752V0.637695H109.02L111.868 15.4561V0.637695H117.844V31.5752H111.797L108.704 16.1064V31.5752H102.657ZM127.425 31.8564C122.175 31.8564 119.55 29.1318 119.55 23.6826V13.1006C119.55 10.6162 120.247 8.63574 121.642 7.15918C123.036 5.6709 124.964 4.92676 127.425 4.92676C129.898 4.92676 131.831 5.6709 133.226 7.15918C134.62 8.63574 135.318 10.6162 135.318 13.1006V23.6826C135.318 29.1318 132.687 31.8564 127.425 31.8564ZM127.425 27.0049C127.952 27.0049 128.327 26.8174 128.55 26.4424C128.784 26.0557 128.901 25.5693 128.901 24.9834V12.0986C128.901 10.5635 128.409 9.7959 127.425 9.7959C126.441 9.7959 125.948 10.5635 125.948 12.0986V24.9834C125.948 25.5693 126.06 26.0557 126.282 26.4424C126.517 26.8174 126.898 27.0049 127.425 27.0049ZM139.695 31.5752L136.514 5.20801H141.91L143.65 19.376L145.18 5.20801H151.209L153.019 19.376L154.478 5.20801H159.892L156.676 31.5752H150.049L148.15 16.6162L146.498 31.5752H139.695Z" fill="white"/>
</svg>
